<?xml version="1.0" encoding="utf-8"?>
<!-- Generator: Adobe Illustrator 22.1.0, SVG Export Plug-In . SVG Version: 6.00 Build 0)  -->
<svg version="1.1" id="Layer_1" xmlns="http://www.w3.org/2000/svg" xmlns:xlink="http://www.w3.org/1999/xlink" x="0px" y="0px"
	 viewBox="0 0 432 288" style="enable-background:new 0 0 432 288;" xml:space="preserve">
<style type="text/css">
	.st0{fill:#FACFDC;stroke:#000000;stroke-miterlimit:10;}
	.st1{fill:#F7941D;}
	.st2{fill:#F15A29;}
	.st3{fill:#BE1E2D;}
	.st4{fill:#EF4136;}
	.st5{fill:#EC008C;}
	.st6{fill:#9E1F63;}
	.st7{fill:#DA1C5C;}
</style>
<rect x="-10.5" y="-14.4" class="st0" width="450" height="306"/>
<path class="st1" d="M37.1,56.1c137.1,94.7,137.1,94.7,137.1,94.7v144.7L16.2,347L37.1,56.1z"/>
<path class="st2" d="M133.9,144.4c107.3,3.3,107.3,3.3,107.3,3.3v134.7l-107.3,6.7V144.4z"/>
<path class="st3" d="M233.9,158.9c59.3-115.3,59.3-115.3,59.3-115.3v337.4l-59.3-81.3V158.9z"/>
<path class="st4" d="M431.4,43.8c-0.7,124.4-0.7,124.4-0.7,124.4h-74V35.6L431.4,43.8z"/>
<path class="st5" d="M133.9-15.1c-0.5,42.4-0.5,42.4-0.5,42.4L-9,23.9v-39.1H133.9z"/>
<path class="st5" d="M323,66.7c-30,0-30,0-30,0v154.7h30V66.7z"/>
<path class="st6" d="M323.7,91.4c112,80.7,112,80.7,112,80.7v95.3l-110-6.7L323.7,91.4z"/>
<polygon class="st7" points="232.1,24.8 176.1,24.8 176.1,123.4 225.4,123.4 232.1,123.4 "/>
<rect x="62.5" y="238.7" class="st7" width="32.7" height="76.7"/>
</svg>
