<?xml version="1.0" encoding="utf-8"?>
<!-- Generator: Adobe Illustrator 22.1.0, SVG Export Plug-In . SVG Version: 6.00 Build 0)  -->
<svg version="1.1" id="Layer_1" xmlns="http://www.w3.org/2000/svg" xmlns:xlink="http://www.w3.org/1999/xlink" x="0px" y="0px"
	 viewBox="0 0 432 288" style="enable-background:new 0 0 432 288;" xml:space="preserve">
<style type="text/css">
	.st0{fill:#FACFDC;stroke:#000000;stroke-miterlimit:10;}
	.st1{fill:#F7941D;}
	.st2{fill:#F15A29;}
	.st3{fill:#BE1E2D;}
	.st4{fill:#EF4136;}
	.st5{fill:#EC008C;}
	.st6{fill:#9E1F63;}
	.st7{fill:#DA1C5C;}
</style>
<rect x="-9.7" y="-12.6" class="st0" width="450" height="306"/>
<path class="st1" d="M38,58c137.1,94.7,137.1,94.7,137.1,94.7v144.7l-158,51.6L38,58z"/>
<path class="st2" d="M132.1,12.2c107.3,3.3,107.3,3.3,107.3,3.3v134.7l-107.3,6.7V12.2z"/>
<path class="st3" d="M234.8,160.8c59.3-115.3,59.3-115.3,59.3-115.3v337.4l-59.3-81.3V160.8z"/>
<path class="st4" d="M432.3,45.7c-0.7,124.4-0.7,124.4-0.7,124.4h-74V37.4L432.3,45.7z"/>
<path class="st5" d="M357.6-5C357,37.4,357,37.4,357,37.4l-185.7-3.3V-5H357.6z"/>
<path class="st5" d="M372.6,74.1c-30,0-30,0-30,0v154.7h30V74.1z"/>
<path class="st6" d="M320.3,203.4c112,80.7,112,80.7,112,80.7v95.3l-110-6.7L320.3,203.4z"/>
<polygon class="st7" points="232.9,154.1 176.9,154.1 176.9,252.7 226.3,252.7 232.9,252.7 "/>
<rect x="63.4" y="113.1" class="st7" width="32.7" height="76.7"/>
</svg>
