<?xml version="1.0" encoding="utf-8"?>
<!-- Generator: Adobe Illustrator 22.1.0, SVG Export Plug-In . SVG Version: 6.00 Build 0)  -->
<svg version="1.1" id="Layer_1" xmlns="http://www.w3.org/2000/svg" xmlns:xlink="http://www.w3.org/1999/xlink" x="0px" y="0px"
	 viewBox="0 0 432 288" style="enable-background:new 0 0 432 288;" xml:space="preserve">
<style type="text/css">
	.st0{fill:#FACFDC;stroke:#000000;stroke-miterlimit:10;}
	.st1{fill:#F7941D;}
	.st2{fill:#F15A29;}
	.st3{fill:#BE1E2D;}
	.st4{fill:#EF4136;}
	.st5{fill:#EC008C;}
	.st6{fill:#9E1F63;}
	.st7{fill:#DA1C5C;}
</style>
<rect x="-9" y="-9" class="st0" width="450" height="306"/>
<path class="st1" d="M-9,6.1c137.1,94.7,137.1,94.7,137.1,94.7v144.7l-158,51.6L-9,6.1z"/>
<path class="st2" d="M128.1,100.8c107.3,3.3,107.3,3.3,107.3,3.3v134.7l-107.3,6.7V100.8z"/>
<path class="st3" d="M235.4,98.1c59.3-115.3,59.3-115.3,59.3-115.3v337.4l-59.3-81.3V98.1z"/>
<path class="st4" d="M369.4-9c-0.7,124.4-0.7,124.4-0.7,124.4h-74V-17.3L369.4-9z"/>
<path class="st5" d="M235.4-9c-0.7,42.4-0.7,42.4-0.7,42.4L49.1,30.1V-9H235.4z"/>
<path class="st5" d="M436.8,136.8c-30,0-30,0-30,0v154.7h30V136.8z"/>
<path class="st6" d="M294.8,115.4c112,80.7,112,80.7,112,80.7v95.3l-110-6.7L294.8,115.4z"/>
<polygon class="st7" points="312.1,189.4 256.1,189.4 256.1,288 305.4,288 312.1,288 "/>
<rect x="64.1" y="56.7" class="st7" width="32.7" height="76.7"/>
</svg>
